<svg id="svg" version="1.1" xmlns="http://www.w3.org/2000/svg" xmlns:xlink="http://www.w3.org/1999/xlink" width="400" height="94.8" viewBox="0, 0, 400,94.8"><g id="svgg"><path id="path0" d="M337.650 11.845 L 317.200 23.667 317.200 47.398 L 317.200 71.129 337.699 82.964 C 348.973 89.474,358.296 94.800,358.417 94.800 C 358.537 94.800,367.853 89.478,379.118 82.974 L 399.600 71.148 399.600 47.398 L 399.600 23.647 379.117 11.824 C 367.852 5.321,358.514 0.005,358.367 0.012 C 358.220 0.018,348.898 5.343,337.650 11.845 M373.979 17.033 C 382.406 21.891,389.376 25.932,389.470 26.013 C 389.563 26.093,388.978 26.542,388.170 27.009 C 387.361 27.477,386.672 27.881,386.639 27.908 C 386.605 27.934,387.180 29.000,387.916 30.277 L 389.256 32.597 390.378 31.965 C 390.995 31.617,391.678 31.212,391.895 31.066 C 392.111 30.920,392.359 30.800,392.446 30.800 C 392.532 30.800,392.579 38.957,392.551 48.927 L 392.500 67.055 376.800 76.122 L 361.100 85.190 361.043 83.295 L 360.986 81.400 358.400 81.400 L 355.814 81.400 355.757 83.285 L 355.700 85.170 340.051 76.135 L 324.402 67.100 324.401 48.931 L 324.400 30.762 325.350 31.307 C 325.873 31.607,326.584 32.023,326.931 32.231 L 327.562 32.609 328.900 30.278 C 329.944 28.459,330.179 27.909,329.969 27.772 C 329.821 27.675,329.125 27.270,328.421 26.872 C 327.494 26.347,327.219 26.103,327.421 25.982 C 332.383 23.028,358.183 8.217,358.379 8.210 C 358.533 8.204,365.553 12.175,373.979 17.033 M145.600 39.400 L 145.600 65.800 150.100 65.800 L 154.600 65.800 154.600 39.400 L 154.600 13.000 150.100 13.000 L 145.600 13.000 145.600 39.400 M194.800 17.100 L 194.800 21.200 199.300 21.200 L 203.800 21.200 203.800 17.100 L 203.800 13.000 199.300 13.000 L 194.800 13.000 194.800 17.100 M4.138 16.016 C 2.522 16.275,1.000 17.739,0.616 19.404 C 0.481 19.991,0.408 28.139,0.405 43.050 L 0.400 65.800 4.999 65.800 L 9.598 65.800 9.649 48.704 L 9.700 31.608 26.000 48.635 C 43.916 67.351,43.001 66.510,45.306 66.363 C 47.042 66.253,48.283 65.476,49.041 64.024 L 49.600 62.954 49.600 39.777 L 49.600 16.600 45.101 16.600 L 40.602 16.600 40.551 33.729 L 40.500 50.859 24.200 33.829 C 5.945 14.757,6.872 15.580,4.138 16.016 M115.200 22.600 L 115.200 28.600 109.400 28.600 L 103.600 28.600 103.600 33.200 L 103.600 37.800 109.400 37.800 L 115.200 37.800 115.200 51.800 L 115.200 65.800 119.800 65.800 L 124.400 65.800 124.400 51.800 L 124.400 37.800 132.100 37.800 L 139.800 37.800 139.800 33.200 L 139.800 28.600 132.100 28.600 L 124.400 28.600 124.400 22.600 L 124.400 16.600 119.800 16.600 L 115.200 16.600 115.200 22.600 M67.800 28.900 C 63.836 29.699,60.881 31.837,59.128 35.173 C 57.892 37.526,57.807 38.297,57.807 47.200 C 57.807 56.103,57.890 56.860,59.132 59.251 C 60.629 62.135,63.467 64.358,66.900 65.336 C 68.435 65.773,85.434 65.984,88.085 65.598 C 93.086 64.871,96.788 61.938,98.220 57.566 C 98.963 55.297,98.970 39.302,98.229 37.100 C 96.723 32.627,93.409 29.668,89.030 28.887 C 86.898 28.507,69.698 28.517,67.800 28.900 M158.000 33.187 L 158.000 37.800 166.770 37.800 L 175.541 37.800 176.220 38.254 C 177.654 39.212,177.599 38.624,177.600 52.950 L 177.600 65.800 182.211 65.800 L 186.823 65.800 186.748 52.250 C 186.664 37.185,186.710 37.723,185.267 34.968 C 184.070 32.683,182.584 31.266,180.079 30.023 C 177.514 28.751,177.389 28.738,167.250 28.652 L 158.000 28.575 158.000 33.187 M194.800 47.200 L 194.800 65.800 199.300 65.800 L 203.800 65.800 203.800 47.200 L 203.800 28.600 199.300 28.600 L 194.800 28.600 194.800 47.200 M215.368 28.830 C 214.383 29.100,213.029 30.293,212.577 31.289 C 212.229 32.056,212.209 33.013,212.204 48.950 L 212.200 65.800 216.700 65.800 L 221.200 65.800 221.200 51.792 L 221.200 37.784 230.050 37.842 L 238.900 37.900 240.039 38.434 C 241.490 39.114,242.773 40.396,243.516 41.911 L 244.100 43.100 244.158 54.450 L 244.216 65.800 248.808 65.800 L 253.400 65.800 253.398 55.750 C 253.396 44.282,253.254 41.917,252.414 39.409 C 250.709 34.321,246.743 30.729,241.100 29.162 C 239.302 28.663,217.026 28.376,215.368 28.830 M270.700 28.738 C 265.538 29.496,261.878 32.851,260.570 38.023 C 259.954 40.461,260.094 55.710,260.749 57.455 C 261.960 60.684,263.915 62.951,266.634 64.278 C 269.478 65.667,269.500 65.669,279.650 65.751 L 288.800 65.825 288.800 61.213 L 288.800 56.600 280.192 56.600 C 268.252 56.600,269.324 57.492,269.243 47.500 C 269.179 39.614,269.235 39.278,270.780 38.252 L 271.459 37.800 280.680 37.800 C 291.194 37.801,290.928 37.762,291.750 39.392 L 292.200 40.285 292.200 55.200 L 292.200 70.115 291.750 71.008 C 290.895 72.704,290.974 72.691,281.150 72.762 L 272.600 72.823 272.600 77.312 L 272.600 81.800 281.208 81.800 C 290.826 81.800,291.773 81.707,294.338 80.505 C 297.875 78.848,300.029 76.244,300.892 72.582 C 301.333 70.712,301.344 39.737,300.905 37.873 C 299.873 33.500,296.811 30.437,292.100 29.066 C 290.945 28.730,272.662 28.450,270.700 28.738 M334.626 33.519 C 333.952 34.684,333.400 35.711,333.400 35.801 C 333.400 35.971,344.961 42.700,345.253 42.700 C 345.617 42.700,347.974 38.307,347.733 38.078 C 347.378 37.739,336.297 31.400,336.060 31.400 C 335.946 31.400,335.301 32.353,334.626 33.519 M374.814 34.703 C 371.687 36.512,369.064 38.061,368.985 38.146 C 368.873 38.266,371.073 42.340,371.458 42.725 C 371.585 42.852,383.272 36.084,383.355 35.835 C 383.454 35.537,380.999 31.399,380.728 31.407 C 380.603 31.411,377.941 32.894,374.814 34.703 M88.200 38.150 C 89.722 38.911,89.800 39.349,89.800 47.200 C 89.800 57.495,90.892 56.600,78.330 56.600 C 65.725 56.600,66.900 57.566,66.900 47.200 C 66.900 39.006,66.906 38.970,68.397 38.173 C 69.435 37.617,87.093 37.598,88.200 38.150 M352.418 43.734 C 350.931 46.302,350.860 46.064,353.585 47.618 L 355.800 48.882 355.800 51.541 L 355.800 54.200 358.400 54.200 L 361.000 54.200 361.000 51.550 L 361.000 48.900 363.404 47.522 L 365.807 46.145 365.380 45.422 C 365.146 45.025,364.551 44.002,364.059 43.150 C 362.989 41.295,363.368 41.323,360.651 42.897 L 358.411 44.194 356.180 42.897 C 353.443 41.306,353.878 41.210,352.418 43.734 M355.800 67.800 L 355.800 74.800 358.400 74.800 L 361.000 74.800 361.000 67.800 L 361.000 60.800 358.400 60.800 L 355.800 60.800 355.800 67.800 " stroke="none" fill="#000000" fill-rule="evenodd"></path></g></svg>